<svg width="120" height="100" viewBox="0 0 120 100" fill="none" xmlns="http://www.w3.org/2000/svg">
<g clip-path="url(#clip0_1768_17242)">
<path d="M109.731 44.2282C107.829 42.4785 105.817 41.0238 103.789 39.8805C100.212 17.6991 82.046 0.820312 60.1761 0.820312C38.3062 0.820312 20.2595 17.5885 16.5961 39.6633C14.4406 40.8394 12.2934 42.3678 10.2691 44.2282C2.18003 51.6739 -0.803168 61.5947 3.60606 66.385C5.89673 68.8765 9.74046 69.4829 14.0349 68.4503V68.4626C14.0349 85.366 27.738 99.0649 44.6373 99.0649C48.0057 99.0649 50.8987 97.0857 52.2469 94.2295C54.8203 94.7253 57.4675 94.9835 60.172 94.9835C62.8766 94.9835 65.2901 94.7458 67.7529 94.291C69.1134 97.1103 71.9941 99.0608 75.3338 99.0608C92.2372 99.0608 105.936 85.3578 105.936 68.4585V68.4421C110.243 69.4829 114.095 68.8765 116.39 66.3809C120.799 61.5906 117.816 51.6739 109.727 44.2241L109.731 44.2282Z" fill="white"/>
<path d="M40.627 91.1738C43.6224 92.8213 49.6133 93.8572 52.2343 94.1693C49.9877 99.0369 45.1825 99.3489 43.248 99.0369C48.3402 98.7373 43.6224 93.67 40.627 91.1738Z" fill="#ECECEC"/>
<path d="M83.1502 57.9254C89.702 57.9254 95.0133 52.6141 95.0133 46.0623C95.0133 39.5105 89.702 34.1992 83.1502 34.1992C76.5984 34.1992 71.2871 39.5105 71.2871 46.0623C71.2871 52.6141 76.5984 57.9254 83.1502 57.9254Z" fill="#FDD4D8"/>
<path d="M55.8711 42.6706C55.8711 44.7254 57.6925 46.3015 59.9295 46.3015C62.1665 46.3015 63.9832 44.6342 63.9832 42.584H55.8711V42.6706Z" fill="#FF7272" stroke="#231815" stroke-width="0.934037" stroke-miterlimit="10"/>
<path d="M36.7576 57.9254C43.3095 57.9254 48.6208 52.6141 48.6208 46.0623C48.6208 39.5105 43.3095 34.1992 36.7576 34.1992C30.2058 34.1992 24.8945 39.5105 24.8945 46.0623C24.8945 52.6141 30.2058 57.9254 36.7576 57.9254Z" fill="#FDD4D8"/>
<path d="M46.6282 40.1539C48.5926 40.1539 50.1851 38.5284 50.1851 36.5232C50.1851 34.5181 48.5926 32.8926 46.6282 32.8926C44.6638 32.8926 43.0713 34.5181 43.0713 36.5232C43.0713 38.5284 44.6638 40.1539 46.6282 40.1539Z" fill="#231815"/>
<path d="M73.3704 40.1539C75.3348 40.1539 76.9272 38.5284 76.9272 36.5232C76.9272 34.5181 75.3348 32.8926 73.3704 32.8926C71.406 32.8926 69.8135 34.5181 69.8135 36.5232C69.8135 38.5284 71.406 40.1539 73.3704 40.1539Z" fill="#231815"/>
<path d="M105.965 60.4707V68.521C109.559 69.4196 111.706 68.8954 112.33 68.521L105.965 60.4707Z" fill="#ECECEC"/>
<path d="M14.0424 55.416V68.5211C9.9986 69.4197 6.99067 68.6459 5.99219 68.1467L14.0424 55.416Z" fill="#ECECEC"/>
<path d="M76.0109 92.2969C74.0639 93.4951 69.708 94.169 67.7734 94.3562C69.7205 99.149 75.6365 99.5983 79.0064 98.8494C73.7643 98.9992 74.8252 94.5435 76.0109 92.2969Z" fill="#ECECEC"/>
</g>
<defs>
<clipPath id="clip0_1768_17242">
<rect width="118.5" height="99.8796" fill="white" transform="translate(0.75)"/>
</clipPath>
</defs>
</svg>
