<svg width="40" height="40" viewBox="0 0 40 40" fill="none" xmlns="http://www.w3.org/2000/svg">
<g clip-path="url(#clip0_2592_21289)">
<path d="M15.336 5.18692C13.3957 6.30714 11.7906 7.72473 10.5147 9.43978C9.23245 11.1634 8.32678 13.0166 7.79422 15.0012C7.26171 16.9856 7.11953 19.0435 7.3687 21.1782C7.61665 23.3022 8.29758 25.3321 9.41795 27.2706C10.5386 29.2094 11.9565 30.8152 13.6713 32.0927C15.3943 33.3763 17.2476 34.2813 19.2322 34.8123C21.2172 35.3434 23.2753 35.4864 25.4097 35.2387C27.5333 34.9923 29.5635 34.3101 31.5025 33.1881C32.3153 32.7189 33.0822 32.1685 33.8026 31.5354C34.5194 30.9055 35.1535 30.2151 35.7063 29.4654C35.8486 29.266 35.9301 29.0464 35.9518 28.797C35.9726 28.5596 35.9255 28.3491 35.8111 28.1509C35.7247 28.0013 35.6121 27.8824 35.47 27.7886C35.3686 27.7216 35.2502 27.6691 35.1096 27.637L34.9611 27.6122L34.95 27.6107C32.4262 27.2489 30.1168 26.3466 28.0276 24.9058C25.941 23.4668 24.2595 21.6428 22.9865 19.4379C21.7129 17.2321 20.9825 14.8643 20.7982 12.3411C20.6143 9.82244 20.9889 7.36864 21.9199 4.98512C21.9824 4.80602 22.007 4.62945 21.9964 4.45157C21.9862 4.28154 21.9391 4.12383 21.8526 3.97411C21.7342 3.76909 21.5746 3.61784 21.3659 3.51199C21.1572 3.40616 20.9395 3.36376 20.7021 3.38558C19.7501 3.50319 18.8222 3.71622 17.9179 4.02215C17.0093 4.32952 16.1488 4.71763 15.336 5.18692Z" fill="#FFCC3D" stroke="#FFCC3D"/>
</g>
<defs>
<clipPath id="clip0_2592_21289">
<rect width="40" height="40" fill="white"/>
</clipPath>
</defs>
</svg>
