<svg width="24" height="24" viewBox="0 0 24 24" fill="none" xmlns="http://www.w3.org/2000/svg">
<path d="M8.625 21C7.05833 21 5.729 20.454 4.637 19.362C3.545 18.27 2.99933 16.9413 3 15.376C3 14.626 3.14167 13.9093 3.425 13.226C3.70833 12.5427 4.11667 11.934 4.65 11.4L11.4 4.65C11.9333 4.11667 12.5417 3.70833 13.225 3.425C13.9083 3.14167 14.625 3 15.375 3C16.9417 3 18.271 3.54567 19.363 4.637C20.455 5.72833 21.0007 7.05767 21 8.625C21 9.375 20.8583 10.0917 20.575 10.775C20.2917 11.4583 19.8833 12.0667 19.35 12.6L12.6 19.35C12.0667 19.8833 11.4583 20.2917 10.775 20.575C10.0917 20.8583 9.375 21 8.625 21ZM15.275 13.85L17.95 11.2C18.2833 10.8667 18.5417 10.475 18.725 10.025C18.9083 9.575 19 9.10833 19 8.625C19 7.625 18.646 6.771 17.938 6.063C17.23 5.355 16.3757 5.00067 15.375 5C14.8917 5 14.425 5.09167 13.975 5.275C13.525 5.45833 13.1333 5.71667 12.8 6.05L10.15 8.725L15.275 13.85ZM8.625 19C9.10833 19 9.575 18.9083 10.025 18.725C10.475 18.5417 10.8667 18.2833 11.2 17.95L13.85 15.275L8.725 10.15L6.05 12.8C5.71667 13.1333 5.45833 13.525 5.275 13.975C5.09167 14.425 5 14.8917 5 15.375C5 16.375 5.35433 17.2293 6.063 17.938C6.77167 18.6467 7.62567 19.0007 8.625 19Z" fill="black"/>
<path d="M8.625 20.9996C9.375 20.9996 10.0917 20.8579 10.775 20.5746C11.4583 20.2913 12.0667 19.8829 12.6 19.3496L15.275 16.6996L7.3 8.72461L4.65 11.3996C4.11667 11.9329 3.70833 12.5413 3.425 13.2246C3.14167 13.9079 3 14.6246 3 15.3746C3 16.9413 3.546 18.2703 4.638 19.3616C5.73 20.4529 7.059 20.9989 8.625 20.9996Z" fill="black"/>
</svg>
