<svg width="24" height="25" viewBox="0 0 24 25" fill="none" xmlns="http://www.w3.org/2000/svg">
<path d="M8.625 21.0625C7.05833 21.0625 5.729 20.5165 4.637 19.4245C3.545 18.3325 2.99933 17.0038 3 15.4385C3 14.6885 3.14167 13.9718 3.425 13.2885C3.70833 12.6052 4.11667 11.9965 4.65 11.4625L11.4 4.7125C11.9333 4.17917 12.5417 3.77083 13.225 3.4875C13.9083 3.20417 14.625 3.0625 15.375 3.0625C16.9417 3.0625 18.271 3.60817 19.363 4.6995C20.455 5.79083 21.0007 7.12017 21 8.6875C21 9.4375 20.8583 10.1542 20.575 10.8375C20.2917 11.5208 19.8833 12.1292 19.35 12.6625L12.6 19.4125C12.0667 19.9458 11.4583 20.3542 10.775 20.6375C10.0917 20.9208 9.375 21.0625 8.625 21.0625ZM15.275 13.9125L17.95 11.2625C18.2833 10.9292 18.5417 10.5375 18.725 10.0875C18.9083 9.6375 19 9.17083 19 8.6875C19 7.6875 18.646 6.8335 17.938 6.1255C17.23 5.4175 16.3757 5.06317 15.375 5.0625C14.8917 5.0625 14.425 5.15417 13.975 5.3375C13.525 5.52083 13.1333 5.77917 12.8 6.1125L10.15 8.7875L15.275 13.9125ZM8.625 19.0625C9.10833 19.0625 9.575 18.9708 10.025 18.7875C10.475 18.6042 10.8667 18.3458 11.2 18.0125L13.85 15.3375L8.725 10.2125L6.05 12.8625C5.71667 13.1958 5.45833 13.5875 5.275 14.0375C5.09167 14.4875 5 14.9542 5 15.4375C5 16.4375 5.35433 17.2918 6.063 18.0005C6.77167 18.7092 7.62567 19.0632 8.625 19.0625Z" fill="#00994A"/>
</svg>
