<svg width="48" height="48" viewBox="0 0 48 48" fill="none" xmlns="http://www.w3.org/2000/svg">
<path d="M42 20.0008C41.9634 18.7762 41.6132 17.5815 40.9828 16.531C40.3525 15.4805 39.4632 14.6093 38.4 14.0008C38.145 12.2586 37.2707 10.6668 35.9373 9.51701C34.6038 8.36725 32.9007 7.73663 31.14 7.74075C30.465 7.7427 29.793 7.83006 29.14 8.00075C27.7634 6.68646 25.9333 5.95312 24.03 5.95312C22.1267 5.95312 20.2966 6.68646 18.92 8.00075C18.267 7.83006 17.595 7.7427 16.92 7.74075C15.1525 7.72696 13.4396 8.35321 12.0978 9.50385C10.756 10.6545 9.87591 12.2518 9.62 14.0008C8.55303 14.6068 7.65973 15.477 7.02583 16.5276C6.39192 17.5783 6.03868 18.7743 6 20.0008C5.46957 20.0008 4.96086 20.2115 4.58579 20.5865C4.21071 20.9616 4 21.4703 4 22.0008C4.00009 25.5114 4.92426 28.9602 6.67962 32.0005C8.43498 35.0408 10.9597 37.5654 14 39.3208V42.0008C14 42.5312 14.2107 43.0399 14.5858 43.415C14.9609 43.79 15.4696 44.0008 16 44.0008H32C32.5304 44.0008 33.0391 43.79 33.4142 43.415C33.7893 43.0399 34 42.5312 34 42.0008V39.3208C37.0403 37.5654 39.565 35.0408 41.3204 32.0005C43.0757 28.9602 43.9999 25.5114 44 22.0008C44 21.4703 43.7893 20.9616 43.4142 20.5865C43.0391 20.2115 42.5304 20.0008 42 20.0008ZM10 20.0008C10.0508 19.3689 10.2893 18.7666 10.6849 18.2713C11.0804 17.7759 11.615 17.4101 12.22 17.2208L13.88 16.7008L13.56 15.0008C13.5652 14.57 13.6552 14.1445 13.8249 13.7486C13.9946 13.3526 14.2406 12.994 14.5489 12.6931C14.8572 12.3922 15.2217 12.155 15.6217 11.9951C16.0217 11.8351 16.4493 11.7555 16.88 11.7608C17.4574 11.759 18.0268 11.8962 18.54 12.1608L20.16 13.0608L21.16 11.5208C21.4727 11.0546 21.8954 10.6726 22.3907 10.4085C22.886 10.1444 23.4387 10.0062 24 10.0062C24.5613 10.0062 25.114 10.1444 25.6093 10.4085C26.1046 10.6726 26.5273 11.0546 26.84 11.5208L27.84 13.0608L29.46 12.1608C29.9732 11.8962 30.5426 11.759 31.12 11.7608C31.9851 11.7499 32.8198 12.0791 33.4445 12.6776C34.0692 13.2761 34.4339 14.096 34.46 14.9608L34.14 16.6608L35.78 17.2208C36.385 17.4101 36.9196 17.7759 37.3151 18.2713C37.7107 18.7666 37.9492 19.3689 38 20.0008H10Z" fill="#FF4949"/>
</svg>
