<svg width="28" height="28" viewBox="0 0 28 28" fill="none" xmlns="http://www.w3.org/2000/svg">
<path d="M4.375 22.4C3.98542 22.4 3.65909 22.2848 3.396 22.0544C3.13292 21.824 3.00092 21.5392 3 21.2C2.99909 20.8608 3.13109 20.576 3.396 20.3456C3.66092 20.1152 3.98725 20 4.375 20H5.75V11.6C5.75 9.94 6.32292 8.4652 7.46875 7.1756C8.61459 5.886 10.1042 5.0408 11.9375 4.64V3.8C11.9375 3.3 12.1383 2.8752 12.5398 2.5256C12.9412 2.176 13.428 2.0008 14 2C14.572 1.9992 15.0592 2.1744 15.4616 2.5256C15.864 2.8768 16.0643 3.3016 16.0625 3.8V4.64C17.8958 5.04 19.3854 5.8852 20.5312 7.1756C21.6771 8.466 22.25 9.9408 22.25 11.6V20H23.625C24.0146 20 24.3414 20.1152 24.6054 20.3456C24.8694 20.576 25.0009 20.8608 25 21.2C24.9991 21.5392 24.8671 21.8244 24.604 22.0556C24.3409 22.2868 24.0146 22.4016 23.625 22.4H4.375ZM14 26C13.2438 26 12.5966 25.7652 12.0585 25.2956C11.5204 24.826 11.2509 24.2608 11.25 23.6H16.75C16.75 24.26 16.481 24.8252 15.9429 25.2956C15.4048 25.766 14.7572 26.0008 14 26ZM8.5 20H19.5V11.6C19.5 10.28 18.9615 9.15 17.8844 8.21C16.8073 7.27 15.5125 6.8 14 6.8C12.4875 6.8 11.1927 7.27 10.1156 8.21C9.03854 9.15 8.5 10.28 8.5 11.6V20Z" fill="#1F1F1F"/>
<circle cx="20" cy="8" r="3" fill="#00B859"/>
</svg>
