<svg width="24" height="24" viewBox="0 0 24 24" fill="none" xmlns="http://www.w3.org/2000/svg">
<path d="M12 14.4751L19.35 7.12509C19.6 6.87509 19.896 6.75409 20.238 6.76209C20.58 6.77009 20.8757 6.89942 21.125 7.15009C21.3743 7.40076 21.4993 7.69676 21.5 8.03809C21.5007 8.37942 21.3757 8.67509 21.125 8.92509L13.425 16.6001C13.225 16.8001 13 16.9501 12.75 17.0501C12.5 17.1501 12.25 17.2001 12 17.2001C11.75 17.2001 11.5 17.1501 11.25 17.0501C11 16.9501 10.775 16.8001 10.575 16.6001L2.875 8.90009C2.625 8.65009 2.504 8.35842 2.512 8.02509C2.52 7.69176 2.64933 7.40009 2.9 7.15009C3.15067 6.90009 3.44666 6.77509 3.788 6.77509C4.12933 6.77509 4.425 6.90009 4.675 7.15009L12 14.4751Z" fill="black"/>
</svg>
