<svg width="20" height="21" viewBox="0 0 20 21" fill="none" xmlns="http://www.w3.org/2000/svg">
<path d="M16.625 18C14.8889 18 13.1736 17.6217 11.4792 16.865C9.78472 16.1083 8.24306 15.0353 6.85417 13.6458C5.46528 12.2564 4.3925 10.7147 3.63583 9.02083C2.87917 7.32694 2.50056 5.61167 2.5 3.875C2.5 3.625 2.58333 3.41667 2.75 3.25C2.91667 3.08333 3.125 3 3.375 3H6.75C6.94444 3 7.11806 3.06611 7.27083 3.19833C7.42361 3.33056 7.51389 3.48667 7.54167 3.66667L8.08333 6.58333C8.11111 6.80556 8.10417 6.99306 8.0625 7.14583C8.02083 7.29861 7.94444 7.43056 7.83333 7.54167L5.8125 9.58333C6.09028 10.0972 6.42 10.5936 6.80167 11.0725C7.18333 11.5514 7.60361 12.0133 8.0625 12.4583C8.49306 12.8889 8.94444 13.2883 9.41667 13.6567C9.88889 14.025 10.3889 14.3617 10.9167 14.6667L12.875 12.7083C13 12.5833 13.1633 12.4897 13.365 12.4275C13.5667 12.3653 13.7644 12.3478 13.9583 12.375L16.8333 12.9583C17.0278 13.0139 17.1875 13.1147 17.3125 13.2608C17.4375 13.4069 17.5 13.57 17.5 13.75V17.125C17.5 17.375 17.4167 17.5833 17.25 17.75C17.0833 17.9167 16.875 18 16.625 18Z" fill="white"/>
</svg>
