<svg width="24" height="25" viewBox="0 0 24 25" fill="none" xmlns="http://www.w3.org/2000/svg">
<path d="M12 22.5C9.71667 22.5 7.81267 21.7167 6.288 20.15C4.76333 18.5833 4.00067 16.6333 4 14.3C4 13.2667 4.23333 12.2333 4.7 11.2C5.16667 10.1667 5.75 9.17501 6.45 8.22501C7.15 7.27501 7.90833 6.38334 8.725 5.55001C9.54167 4.71668 10.3 3.99168 11 3.37501C11.1333 3.24168 11.2877 3.14601 11.463 3.08801C11.6383 3.03001 11.8173 3.00068 12 3.00001C12.1827 2.99934 12.362 3.02868 12.538 3.08801C12.714 3.14734 12.868 3.24301 13 3.37501C13.7 3.99168 14.4583 4.71668 15.275 5.55001C16.0917 6.38334 16.85 7.27501 17.55 8.22501C18.25 9.17501 18.8333 10.1667 19.3 11.2C19.7667 12.2333 20 13.2667 20 14.3C20 16.6333 19.2377 18.5833 17.713 20.15C16.1883 21.7167 14.284 22.5 12 22.5ZM12 20.5C13.7333 20.5 15.1667 19.9123 16.3 18.737C17.4333 17.5617 18 16.0827 18 14.3C18 13.0833 17.4957 11.7083 16.487 10.175C15.4783 8.64168 13.9827 6.96668 12 5.15001C10.0167 6.96668 8.521 8.64168 7.513 10.175C6.505 11.7083 6.00067 13.0833 6 14.3C6 16.0833 6.56667 17.5627 7.7 18.738C8.83333 19.9133 10.2667 20.5007 12 20.5ZM12.275 19.5C12.475 19.4833 12.646 19.404 12.788 19.262C12.93 19.12 13.0007 18.9493 13 18.75C13 18.5167 12.925 18.3293 12.775 18.188C12.625 18.0467 12.4333 17.984 12.2 18C11.5167 18.05 10.7917 17.8627 10.025 17.438C9.25833 17.0133 8.775 16.2423 8.575 15.125C8.54167 14.9417 8.45433 14.7917 8.313 14.675C8.17167 14.5583 8.009 14.5 7.825 14.5C7.59167 14.5 7.4 14.5877 7.25 14.763C7.1 14.9383 7.05 15.1423 7.1 15.375C7.38333 16.8917 8.05 17.975 9.1 18.625C10.15 19.275 11.2083 19.5667 12.275 19.5Z" fill="#00994A"/>
</svg>
