<svg width="24" height="25" viewBox="0 0 24 25" fill="none" xmlns="http://www.w3.org/2000/svg">
<path d="M7 20.1604V21.5004C7 21.7656 7.10536 22.0199 7.29289 22.2075C7.48043 22.395 7.73478 22.5004 8 22.5004H16C16.2652 22.5004 16.5196 22.395 16.7071 22.2075C16.8946 22.0199 17 21.7656 17 21.5004V20.1604C18.5202 19.2827 19.7825 18.0204 20.6602 16.5002C21.5379 14.9801 22 13.2557 22 11.5004C22 11.2352 21.8946 10.9808 21.7071 10.7933C21.5196 10.6057 21.2652 10.5004 21 10.5004C20.9817 9.8881 20.8066 9.29077 20.4914 8.76552C20.1763 8.24027 19.7316 7.80466 19.2 7.50038C19.0725 6.62932 18.6354 5.83339 17.9686 5.25851C17.3019 4.68362 16.4503 4.36831 15.57 4.37038C15.2325 4.37135 14.8965 4.41503 14.57 4.50038C13.8817 3.84323 12.9666 3.47656 12.015 3.47656C11.0634 3.47656 10.1483 3.84323 9.46 4.50038C9.13349 4.41503 8.79748 4.37135 8.46 4.37038C7.57623 4.36348 6.71981 4.6766 6.04892 5.25192C5.37802 5.82724 4.93795 6.62589 4.81 7.50038C4.27652 7.80342 3.82987 8.23848 3.51291 8.76382C3.19596 9.28915 3.01934 9.88713 3 10.5004C2.73478 10.5004 2.48043 10.6057 2.29289 10.7933C2.10536 10.9808 2 11.2352 2 11.5004C2.00004 13.2557 2.46213 14.9801 3.33981 16.5002C4.21749 18.0204 5.47985 19.2827 7 20.1604ZM6.11 9.16038L6.94 8.90038L6.78 8.00038C6.78261 7.785 6.82762 7.57225 6.91246 7.37428C6.9973 7.1763 7.1203 6.99698 7.27445 6.84654C7.4286 6.69611 7.61087 6.57751 7.81086 6.49753C8.01084 6.41754 8.22463 6.37773 8.44 6.38038C8.7287 6.37952 9.01338 6.44811 9.27 6.58038L10.08 7.03038L10.58 6.26038C10.7364 6.02731 10.9477 5.83632 11.1953 5.70426C11.443 5.57219 11.7193 5.50311 12 5.50311C12.2807 5.50311 12.557 5.57219 12.8047 5.70426C13.0523 5.83632 13.2636 6.02731 13.42 6.26038L13.92 7.03038L14.73 6.58038C14.9866 6.44811 15.2713 6.37952 15.56 6.38038C15.9925 6.37494 16.4099 6.53956 16.7222 6.83882C17.0346 7.13807 17.2169 7.54801 17.23 7.98038L17.07 8.83038L17.89 9.11038C18.1925 9.20504 18.4598 9.38795 18.6576 9.63563C18.8554 9.8833 18.9746 10.1844 19 10.5004H5C5.0254 10.1844 5.14465 9.8833 5.34243 9.63563C5.54022 9.38795 5.80751 9.20504 6.11 9.11038V9.16038ZM19.94 12.5004C19.7732 13.8096 19.285 15.0572 18.519 16.132C17.7531 17.2068 16.7331 18.0754 15.55 18.6604C15.3836 18.7442 15.2439 18.8729 15.1467 19.032C15.0495 19.191 14.9987 19.374 15 19.5604V20.5004H9V19.5604C9.0013 19.374 8.95049 19.191 8.85331 19.032C8.75612 18.8729 8.61644 18.7442 8.45 18.6604C7.26691 18.0754 6.24693 17.2068 5.48096 16.132C4.71499 15.0572 4.22684 13.8096 4.06 12.5004H19.94Z" fill="#00994A"/>
</svg>
