<svg width="24" height="25" viewBox="0 0 24 25" fill="none" xmlns="http://www.w3.org/2000/svg">
<path d="M5 19.5H4L3.35 17.5H2V12.475C2 11.925 2.196 11.4583 2.588 11.075C2.98 10.6917 3.45067 10.5 4 10.5V7.5C4 6.95 4.196 6.47933 4.588 6.088C4.98 5.69667 5.45067 5.50067 6 5.5H18C18.55 5.5 19.021 5.696 19.413 6.088C19.805 6.48 20.0007 6.95067 20 7.5V10.5C20.55 10.5 21.021 10.696 21.413 11.088C21.805 11.48 22.0007 11.9507 22 12.5V17.5H20.65L20 19.5H19L18.35 17.5H5.65L5 19.5ZM13 10.5H18V7.5H13V10.5ZM6 10.5H11V7.5H6V10.5ZM4 15.5H20V12.5H4V15.5Z" fill="#00994A"/>
</svg>
