<svg width="24" height="25" viewBox="0 0 24 25" fill="none" xmlns="http://www.w3.org/2000/svg">
<path d="M12 21.5C11.7 21.5 11.4127 21.446 11.138 21.338C10.8633 21.23 10.6173 21.0673 10.4 20.85L3.7 14.125C3.11667 13.5417 2.68767 12.875 2.413 12.125C2.13833 11.375 2.00067 10.5917 2 9.775C2 8.05833 2.55833 6.58333 3.675 5.35C4.79167 4.11667 6.18333 3.5 7.85 3.5C8.65 3.5 9.40433 3.65833 10.113 3.975C10.8217 4.29167 11.4507 4.73333 12 5.3C12.5333 4.73333 13.1543 4.29167 13.863 3.975C14.5717 3.65833 15.3257 3.5 16.125 3.5C17.7917 3.5 19.1877 4.11667 20.313 5.35C21.4383 6.58333 22.0007 8.05 22 9.75C22 10.5667 21.8583 11.35 21.575 12.1C21.2917 12.85 20.8667 13.5167 20.3 14.1L13.575 20.85C13.3583 21.0667 13.1167 21.2293 12.85 21.338C12.5833 21.4467 12.3 21.5007 12 21.5ZM13 8.5C13.1667 8.5 13.325 8.54167 13.475 8.625C13.625 8.70833 13.7417 8.81667 13.825 8.95L15.525 11.5H19.675C19.7917 11.2167 19.8793 10.9293 19.938 10.638C19.9967 10.3467 20.0257 10.0507 20.025 9.75C19.9917 8.6 19.6083 7.61233 18.875 6.787C18.1417 5.96167 17.225 5.54933 16.125 5.55C15.6083 5.55 15.1127 5.65 14.638 5.85C14.1633 6.05 13.7507 6.34167 13.4 6.725L12.725 7.45C12.6417 7.55 12.5333 7.62933 12.4 7.688C12.2667 7.74667 12.1333 7.77567 12 7.775C11.8667 7.77433 11.7333 7.74533 11.6 7.688C11.4667 7.63067 11.35 7.55133 11.25 7.45L10.575 6.725C10.225 6.34167 9.81667 6.04167 9.35 5.825C8.88333 5.60833 8.38333 5.5 7.85 5.5C6.75 5.5 5.83333 5.921 5.1 6.763C4.36667 7.605 4 8.60067 4 9.75C4 10.05 4.025 10.346 4.075 10.638C4.125 10.93 4.20833 11.2173 4.325 11.5H9C9.16667 11.5 9.325 11.5417 9.475 11.625C9.625 11.7083 9.74167 11.8167 9.825 11.95L10.7 13.25L12.05 9.2C12.1167 9 12.2373 8.83333 12.412 8.7C12.5867 8.56667 12.7827 8.5 13 8.5ZM13.3 11.75L11.95 15.8C11.8833 16 11.7583 16.1667 11.575 16.3C11.3917 16.4333 11.1917 16.5 10.975 16.5C10.8083 16.5 10.65 16.4583 10.5 16.375C10.35 16.2917 10.2333 16.1833 10.15 16.05L8.45 13.5H5.9L11.825 19.425C11.8583 19.4583 11.8877 19.4793 11.913 19.488C11.9383 19.4967 11.9673 19.5007 12 19.5C12.0327 19.4993 12.062 19.4953 12.088 19.488C12.114 19.4807 12.143 19.4597 12.175 19.425L18.075 13.5H15C14.8333 13.5 14.675 13.4583 14.525 13.375C14.375 13.2917 14.25 13.1833 14.15 13.05L13.3 11.75Z" fill="#00994A"/>
</svg>
